<svg width="137" height="64" viewBox="0 0 137 64" fill="none" xmlns="http://www.w3.org/2000/svg">
<g filter="url(#filter0_i_7_248)">
<rect width="137" height="62.449" rx="31.2245" fill="url(#paint0_linear_7_248)"/>
</g>
<path fill-rule="evenodd" clip-rule="evenodd" d="M31.827 25.2291C30.5576 26.3691 28.8874 27.0612 27.0575 27.0612C24.8981 27.0612 22.961 26.0973 21.6427 24.5711C21.1047 24.8329 20.5018 24.9796 19.865 24.9796C17.5951 24.9796 15.755 23.1156 15.755 20.8163C15.755 18.517 17.5951 16.6531 19.865 16.6531C20.0921 16.6531 20.3148 16.6717 20.5319 16.7076C21.675 14.2168 24.1672 12.4898 27.0575 12.4898C29.4029 12.4898 31.4861 13.627 32.7991 15.3867C33.1561 15.3072 33.527 15.2653 33.9075 15.2653C36.7449 15.2653 39.045 17.5953 39.045 20.4694C39.045 23.3435 36.7449 25.6735 33.9075 25.6735C33.167 25.6735 32.463 25.5148 31.827 25.2291Z" fill="url(#paint1_linear_7_248)"/>
<path fill-rule="evenodd" clip-rule="evenodd" d="M67.4187 15.0709C66.7467 15.6744 65.8625 16.0408 64.8937 16.0408C63.7505 16.0408 62.725 15.5305 62.027 14.7225C61.7422 14.8611 61.423 14.9388 61.0859 14.9388C59.8842 14.9388 58.91 13.952 58.91 12.7347C58.91 11.5174 59.8842 10.5306 61.0859 10.5306C61.2061 10.5306 61.3241 10.5405 61.439 10.5595C62.0442 9.24081 63.3635 8.32654 64.8937 8.32654C66.1354 8.32654 67.2383 8.92858 67.9334 9.86021C68.1224 9.81812 68.3187 9.79593 68.5202 9.79593C70.0223 9.79593 71.24 11.0294 71.24 12.551C71.24 14.0726 70.0223 15.3061 68.5202 15.3061C68.1281 15.3061 67.7554 15.2221 67.4187 15.0709Z" fill="url(#paint2_linear_7_248)"/>
<path fill-rule="evenodd" clip-rule="evenodd" d="M64.6107 31.3075C63.5653 32.2463 62.1898 32.8163 60.6829 32.8163C58.9046 32.8163 57.3094 32.0225 56.2236 30.7656C55.7806 30.9812 55.2841 31.102 54.7597 31.102C52.8904 31.102 51.375 29.567 51.375 27.6734C51.375 25.7799 52.8904 24.2449 54.7597 24.2449C54.9467 24.2449 55.1301 24.2602 55.3089 24.2898C56.2503 22.2385 58.3027 20.8163 60.6829 20.8163C62.6145 20.8163 64.3301 21.7528 65.4113 23.2021C65.7053 23.1366 66.0107 23.1021 66.3241 23.1021C68.6608 23.1021 70.555 25.0208 70.555 27.3878C70.555 29.7547 68.6608 31.6735 66.3241 31.6735C65.7143 31.6735 65.1345 31.5428 64.6107 31.3075Z" fill="url(#paint3_linear_7_248)"/>
<g filter="url(#filter1_d_7_248)">
<ellipse cx="102.065" cy="32.6123" rx="23.975" ry="24.2857" fill="url(#paint4_linear_7_248)"/>
<ellipse cx="102.065" cy="32.6123" rx="19.865" ry="20.1224" fill="url(#paint5_linear_7_248)"/>
<ellipse cx="102.065" cy="32.6123" rx="23.975" ry="24.2857" fill="#FF9255"/>
<ellipse cx="102.065" cy="32.6123" rx="19.865" ry="20.1224" fill="url(#paint6_linear_7_248)"/>
<mask id="mask0_7_248" style="mask-type:alpha" maskUnits="userSpaceOnUse" x="78" y="8" width="49" height="49">
<ellipse cx="102.065" cy="32.6123" rx="23.975" ry="24.2857" fill="url(#paint7_linear_7_248)"/>
</mask>
<g mask="url(#mask0_7_248)">
<path d="M107.202 34.7118C120.08 19.4465 132.89 19.0996 137.685 20.8343L145.562 28.467L138.712 61.4261L89.05 77.0384L61.3075 64.2016L58.225 33.671C69.185 40.3785 94.3245 49.9771 107.202 34.7118Z" fill="url(#paint8_linear_7_248)"/>
<path d="M100.01 32.6002C71.7902 15.2653 63.477 20.5354 59.2034 23.3391L53.2667 32.6002L67.4053 63.0853L119.28 66.7284L143.371 47.7816L139.45 17.3498C130.303 26.4274 117.977 43.6372 100.01 32.6002Z" fill="url(#paint9_linear_7_248)"/>
</g>
</g>
<defs>
<filter id="filter0_i_7_248" x="0" y="0" width="137" height="68.449" filterUnits="userSpaceOnUse" color-interpolation-filters="sRGB">
<feFlood flood-opacity="0" result="BackgroundImageFix"/>
<feBlend mode="normal" in="SourceGraphic" in2="BackgroundImageFix" result="shape"/>
<feColorMatrix in="SourceAlpha" type="matrix" values="0 0 0 0 0 0 0 0 0 0 0 0 0 0 0 0 0 0 127 0" result="hardAlpha"/>
<feMorphology radius="3" operator="erode" in="SourceAlpha" result="effect1_innerShadow_7_248"/>
<feOffset dy="6"/>
<feGaussianBlur stdDeviation="4"/>
<feComposite in2="hardAlpha" operator="arithmetic" k2="-1" k3="1"/>
<feColorMatrix type="matrix" values="0 0 0 0 0 0 0 0 0 0 0 0 0 0 0 0 0 0 0.25 0"/>
<feBlend mode="normal" in2="shape" result="effect1_innerShadow_7_248"/>
</filter>
<filter id="filter1_d_7_248" x="70.09" y="3.32654" width="59.95" height="60.5714" filterUnits="userSpaceOnUse" color-interpolation-filters="sRGB">
<feFlood flood-opacity="0" result="BackgroundImageFix"/>
<feColorMatrix in="SourceAlpha" type="matrix" values="0 0 0 0 0 0 0 0 0 0 0 0 0 0 0 0 0 0 127 0" result="hardAlpha"/>
<feOffset dx="-2" dy="1"/>
<feGaussianBlur stdDeviation="3"/>
<feColorMatrix type="matrix" values="0 0 0 0 0 0 0 0 0 0 0 0 0 0 0 0 0 0 0.25 0"/>
<feBlend mode="normal" in2="BackgroundImageFix" result="effect1_dropShadow_7_248"/>
<feBlend mode="normal" in="SourceGraphic" in2="effect1_dropShadow_7_248" result="shape"/>
</filter>
<linearGradient id="paint0_linear_7_248" x1="68.5" y1="0" x2="68.5" y2="62.449" gradientUnits="userSpaceOnUse">
<stop stop-color="#66FFED"/>
<stop offset="1" stop-color="#FFEEB2"/>
</linearGradient>
<linearGradient id="paint1_linear_7_248" x1="27.4" y1="12.4898" x2="27.4" y2="27.0612" gradientUnits="userSpaceOnUse">
<stop stop-color="#FFF48F"/>
<stop offset="1" stop-color="#FFFEEA" stop-opacity="0"/>
</linearGradient>
<linearGradient id="paint2_linear_7_248" x1="65.075" y1="8.32654" x2="65.075" y2="16.0408" gradientUnits="userSpaceOnUse">
<stop stop-color="#FFF48F"/>
<stop offset="1" stop-color="#FFFEEA" stop-opacity="0"/>
</linearGradient>
<linearGradient id="paint3_linear_7_248" x1="60.965" y1="20.8163" x2="60.965" y2="32.8163" gradientUnits="userSpaceOnUse">
<stop stop-color="#FFF48F"/>
<stop offset="1" stop-color="#FFFEEA" stop-opacity="0"/>
</linearGradient>
<linearGradient id="paint4_linear_7_248" x1="102.065" y1="8.32654" x2="102.065" y2="56.898" gradientUnits="userSpaceOnUse">
<stop stop-color="#FFC123"/>
<stop offset="1" stop-color="#F8832E"/>
</linearGradient>
<linearGradient id="paint5_linear_7_248" x1="102.065" y1="12.4898" x2="102.065" y2="52.7347" gradientUnits="userSpaceOnUse">
<stop stop-color="#FFBF24"/>
<stop offset="1" stop-color="#F4924B"/>
</linearGradient>
<linearGradient id="paint6_linear_7_248" x1="102.065" y1="12.4898" x2="102.065" y2="52.7347" gradientUnits="userSpaceOnUse">
<stop stop-color="#FFBF24"/>
<stop offset="1" stop-color="#F4924B"/>
</linearGradient>
<linearGradient id="paint7_linear_7_248" x1="102.065" y1="8.32654" x2="102.065" y2="56.898" gradientUnits="userSpaceOnUse">
<stop stop-color="#FFC123"/>
<stop offset="1" stop-color="#F8832E"/>
</linearGradient>
<linearGradient id="paint8_linear_7_248" x1="101.894" y1="20.1225" x2="101.894" y2="77.0384" gradientUnits="userSpaceOnUse">
<stop stop-color="#FF9D55" stop-opacity="0.6"/>
<stop offset="1" stop-color="#FD8A37" stop-opacity="0"/>
</linearGradient>
<linearGradient id="paint9_linear_7_248" x1="93.8768" y1="14.321" x2="107.098" y2="69.6399" gradientUnits="userSpaceOnUse">
<stop stop-color="#FFBD3E" stop-opacity="0.49"/>
<stop offset="1" stop-color="white" stop-opacity="0"/>
</linearGradient>
</defs>
</svg>
