<svg width="137" height="63" viewBox="0 0 137 63" fill="none" xmlns="http://www.w3.org/2000/svg">
<g filter="url(#filter0_i_7_245)">
<rect width="137" height="62.449" rx="31.2245" fill="url(#paint0_linear_7_245)"/>
</g>
<path d="M77.8448 17.9617C78.1783 17.4775 78.9185 17.6097 79.0685 18.1802L79.5987 20.1969C79.6597 20.4288 79.8347 20.6124 80.0614 20.6822L82.0327 21.2891C82.5903 21.4608 82.695 22.2147 82.2057 22.5355L80.4761 23.6695C80.2772 23.8 80.1589 24.0253 80.1634 24.2653L80.2028 26.3519C80.2139 26.9422 79.5384 27.2759 79.086 26.9037L77.4868 25.5879C77.3029 25.4365 77.0548 25.3923 76.8308 25.4708L74.8839 26.1534C74.3331 26.3466 73.811 25.799 74.0207 25.2481L74.7619 23.3008C74.8472 23.0769 74.8121 22.8242 74.6692 22.6327L73.4266 20.968C73.0751 20.4971 73.4279 19.8249 74.0099 19.8567L76.0672 19.969C76.3038 19.9819 76.5302 19.8701 76.6658 19.6732L77.8448 17.9617Z" fill="url(#paint1_linear_7_245)"/>
<path d="M62.3009 8.59673C62.3822 8.47872 62.5625 8.51093 62.5991 8.64998L62.7283 9.1415C62.7432 9.19804 62.7859 9.24277 62.8411 9.25979L63.3216 9.40771C63.4575 9.44956 63.483 9.6333 63.3637 9.71149L62.9422 9.98788C62.8937 10.0197 62.8649 10.0746 62.866 10.1331L62.8756 10.6416C62.8783 10.7855 62.7136 10.8669 62.6034 10.7761L62.2136 10.4554C62.1688 10.4186 62.1083 10.4078 62.0537 10.4269L61.5792 10.5933C61.445 10.6404 61.3177 10.5069 61.3688 10.3726L61.5495 9.89803C61.5703 9.84344 61.5617 9.78185 61.5269 9.73519L61.224 9.32946C61.1384 9.21467 61.2243 9.05084 61.3662 9.05859L61.8676 9.08597C61.9253 9.08912 61.9805 9.06185 62.0135 9.01387L62.3009 8.59673Z" fill="url(#paint2_linear_7_245)"/>
<path d="M97.5774 23.0022C97.6615 22.6546 98.1084 22.5655 98.3163 22.8548L99.0512 23.8774C99.1357 23.9951 99.2743 24.0601 99.4175 24.0494L100.663 23.9561C101.015 23.9297 101.237 24.3327 101.03 24.6224L100.296 25.6464C100.212 25.7641 100.194 25.9177 100.248 26.0524L100.721 27.2233C100.854 27.5545 100.544 27.8927 100.208 27.7824L99.0205 27.3926C98.8838 27.3478 98.734 27.3777 98.6244 27.4716L97.671 28.2886C97.4013 28.5197 96.988 28.3257 96.9877 27.9679L96.9866 26.703C96.9865 26.5575 96.9121 26.4224 96.79 26.3458L95.7284 25.6798C95.4281 25.4914 95.4825 25.0333 95.8183 24.9224L97.0056 24.5305C97.1422 24.4854 97.246 24.372 97.2802 24.2307L97.5774 23.0022Z" fill="url(#paint3_linear_7_245)"/>
<path d="M111.662 14.8514C111.709 14.6567 111.959 14.6068 112.076 14.7688L112.487 15.3416C112.534 15.4075 112.612 15.4439 112.692 15.4379L113.39 15.3857C113.587 15.3709 113.711 15.5966 113.595 15.7588L113.185 16.3323C113.137 16.3983 113.127 16.4843 113.158 16.5597L113.422 17.2155C113.497 17.401 113.323 17.5905 113.135 17.5287L112.47 17.3104C112.393 17.2853 112.309 17.302 112.248 17.3546L111.714 17.8122C111.563 17.9416 111.332 17.833 111.331 17.6326L111.331 16.9241C111.331 16.8426 111.289 16.767 111.221 16.7241L110.626 16.3511C110.458 16.2456 110.488 15.989 110.677 15.9269L111.341 15.7074C111.418 15.6821 111.476 15.6186 111.495 15.5395L111.662 14.8514Z" fill="url(#paint4_linear_7_245)"/>
<path d="M90.7065 6.84309C90.934 6.74435 91.1716 6.96027 91.0993 7.20007L90.8436 8.04774C90.8142 8.14523 90.8366 8.2512 90.9029 8.32792L91.4792 8.99491C91.6422 9.18361 91.5129 9.4792 91.2654 9.48363L90.3905 9.49927C90.2899 9.50107 90.1973 9.55542 90.1458 9.64298L89.6976 10.4042C89.5708 10.6196 89.2533 10.5864 89.1727 10.3493L88.8877 9.5113C88.8549 9.41491 88.7752 9.34254 88.6771 9.31994L87.8239 9.12342C87.5825 9.06783 87.5156 8.7517 87.7133 8.60075L88.412 8.0672C88.4923 8.00583 88.5357 7.90675 88.5266 7.80522L88.4474 6.92252C88.425 6.67279 88.7011 6.51064 88.904 6.65443L89.6208 7.16267C89.7033 7.22113 89.8097 7.23227 89.9022 7.19212L90.7065 6.84309Z" fill="url(#paint5_linear_7_245)"/>
<g filter="url(#filter1_d_7_245)">
<ellipse cx="30.825" cy="31.2245" rx="23.975" ry="24.2857" fill="url(#paint6_linear_7_245)"/>
<ellipse cx="30.825" cy="31.2245" rx="19.865" ry="20.1224" fill="url(#paint7_linear_7_245)"/>
<mask id="mask0_7_245" style="mask-type:alpha" maskUnits="userSpaceOnUse" x="6" y="6" width="49" height="50">
<ellipse cx="30.825" cy="31.2245" rx="23.975" ry="24.2857" fill="url(#paint8_linear_7_245)"/>
</mask>
<g mask="url(#mask0_7_245)">
<circle cx="61.85" cy="55.9388" r="15" fill="url(#paint9_linear_7_245)"/>
<circle cx="44.85" cy="37.9388" r="2" fill="url(#paint10_linear_7_245)"/>
<circle cx="33.85" cy="48.9388" r="4" fill="url(#paint11_linear_7_245)"/>
<circle cx="13.35" cy="47.4388" r="5.5" fill="url(#paint12_linear_7_245)"/>
</g>
</g>
<defs>
<filter id="filter0_i_7_245" x="0" y="0" width="137" height="68.449" filterUnits="userSpaceOnUse" color-interpolation-filters="sRGB">
<feFlood flood-opacity="0" result="BackgroundImageFix"/>
<feBlend mode="normal" in="SourceGraphic" in2="BackgroundImageFix" result="shape"/>
<feColorMatrix in="SourceAlpha" type="matrix" values="0 0 0 0 0 0 0 0 0 0 0 0 0 0 0 0 0 0 127 0" result="hardAlpha"/>
<feMorphology radius="3" operator="erode" in="SourceAlpha" result="effect1_innerShadow_7_245"/>
<feOffset dy="6"/>
<feGaussianBlur stdDeviation="4"/>
<feComposite in2="hardAlpha" operator="arithmetic" k2="-1" k3="1"/>
<feColorMatrix type="matrix" values="0 0 0 0 0 0 0 0 0 0 0 0 0 0 0 0 0 0 0.25 0"/>
<feBlend mode="normal" in2="shape" result="effect1_innerShadow_7_245"/>
</filter>
<filter id="filter1_d_7_245" x="2.84998" y="1.93878" width="59.95" height="60.5714" filterUnits="userSpaceOnUse" color-interpolation-filters="sRGB">
<feFlood flood-opacity="0" result="BackgroundImageFix"/>
<feColorMatrix in="SourceAlpha" type="matrix" values="0 0 0 0 0 0 0 0 0 0 0 0 0 0 0 0 0 0 127 0" result="hardAlpha"/>
<feOffset dx="2" dy="1"/>
<feGaussianBlur stdDeviation="3"/>
<feColorMatrix type="matrix" values="0 0 0 0 0 0 0 0 0 0 0 0 0 0 0 0 0 0 0.25 0"/>
<feBlend mode="normal" in2="BackgroundImageFix" result="effect1_dropShadow_7_245"/>
<feBlend mode="normal" in="SourceGraphic" in2="effect1_dropShadow_7_245" result="shape"/>
</filter>
<linearGradient id="paint0_linear_7_245" x1="70.2125" y1="2.42857" x2="68.4554" y2="62.4477" gradientUnits="userSpaceOnUse">
<stop stop-color="#2B4485"/>
<stop offset="1" stop-color="#AFCAFF"/>
</linearGradient>
<linearGradient id="paint1_linear_7_245" x1="78.6888" y1="16.7364" x2="76.6163" y2="28.3441" gradientUnits="userSpaceOnUse">
<stop stop-color="#ADDDFF"/>
<stop offset="1" stop-color="#EDF6FF" stop-opacity="0"/>
</linearGradient>
<linearGradient id="paint2_linear_7_245" x1="62.5066" y1="8.2981" x2="62.0015" y2="11.1272" gradientUnits="userSpaceOnUse">
<stop stop-color="#ADDDFF"/>
<stop offset="1" stop-color="#EDF6FF" stop-opacity="0"/>
</linearGradient>
<linearGradient id="paint3_linear_7_245" x1="97.7902" y1="22.1226" x2="99.1881" y2="29.1305" gradientUnits="userSpaceOnUse">
<stop stop-color="#ADDDFF"/>
<stop offset="1" stop-color="#EDF6FF" stop-opacity="0"/>
</linearGradient>
<linearGradient id="paint4_linear_7_245" x1="111.781" y1="14.3588" x2="112.564" y2="18.2837" gradientUnits="userSpaceOnUse">
<stop stop-color="#ADDDFF"/>
<stop offset="1" stop-color="#EDF6FF" stop-opacity="0"/>
</linearGradient>
<linearGradient id="paint5_linear_7_245" x1="91.2823" y1="6.59321" x2="87.9323" y2="10.2792" gradientUnits="userSpaceOnUse">
<stop stop-color="#ADDDFF"/>
<stop offset="1" stop-color="#EDF6FF" stop-opacity="0"/>
</linearGradient>
<linearGradient id="paint6_linear_7_245" x1="30.825" y1="6.93878" x2="30.825" y2="55.5102" gradientUnits="userSpaceOnUse">
<stop stop-color="#D6E9FF"/>
<stop offset="1" stop-color="#CDE4FF"/>
</linearGradient>
<linearGradient id="paint7_linear_7_245" x1="30.825" y1="11.1021" x2="30.825" y2="51.347" gradientUnits="userSpaceOnUse">
<stop stop-color="#CEE5FF"/>
<stop offset="0.9999" stop-color="#EDF6FF"/>
<stop offset="1" stop-color="#F1F9FF"/>
</linearGradient>
<linearGradient id="paint8_linear_7_245" x1="30.825" y1="6.93878" x2="30.825" y2="55.5102" gradientUnits="userSpaceOnUse">
<stop stop-color="#DDEDFF"/>
<stop offset="1" stop-color="#3483F9"/>
</linearGradient>
<linearGradient id="paint9_linear_7_245" x1="61.85" y1="40.9388" x2="61.85" y2="70.9388" gradientUnits="userSpaceOnUse">
<stop stop-color="#C8D7FF"/>
<stop offset="1" stop-color="#DCF0FF" stop-opacity="0"/>
</linearGradient>
<linearGradient id="paint10_linear_7_245" x1="44.85" y1="35.9388" x2="44.85" y2="39.9388" gradientUnits="userSpaceOnUse">
<stop stop-color="#C8D7FF"/>
<stop offset="1" stop-color="#DCF0FF" stop-opacity="0"/>
</linearGradient>
<linearGradient id="paint11_linear_7_245" x1="33.85" y1="44.9388" x2="33.85" y2="52.9388" gradientUnits="userSpaceOnUse">
<stop stop-color="#C8D7FF"/>
<stop offset="1" stop-color="#DCF0FF" stop-opacity="0"/>
</linearGradient>
<linearGradient id="paint12_linear_7_245" x1="13.35" y1="41.9388" x2="13.35" y2="52.9388" gradientUnits="userSpaceOnUse">
<stop stop-color="#C8D7FF"/>
<stop offset="1" stop-color="#DCF0FF" stop-opacity="0"/>
</linearGradient>
</defs>
</svg>
